<?xml version="1.0" encoding="UTF-8" standalone="no"?>
<!-- Created with Inkscape (http://www.inkscape.org/) by Marsupilami -->
<svg
   xmlns:svg="http://www.w3.org/2000/svg"
   xmlns="http://www.w3.org/2000/svg"
   version="1.0"
   width="1024"
   height="256"
   viewBox="0 0 127.84375 31.96125"
   id="svg3208">
  <defs
     id="defs3210" />
  <g
     transform="translate(-311.07812,-516.38156)"
     id="layer1">
    <path
       d="M 0,0 C 0,0.11125 0,14.53125 0,14.53125 L 1.375,14.53125 C 1.375,14.53125 1.375,0.11125 1.375,0 C 1.2725,0 0.10375,0 0,0 z M 39.9375,0 L 39.9375,14.53125 L 41.3125,14.53125 L 41.3125,0 L 39.9375,0 z M 93.625,0 C 93.625002,0.1125 93.625,14.53125 93.625,14.53125 L 95,14.53125 C 95,14.53125 95,0.1125 95,0 C 94.9,0 93.725,0 93.625,0 z M 27.6875,2.84375 L 27.6875,14.5625 L 29.0625,14.5625 L 29.0625,2.84375 L 27.6875,2.84375 z M 61.75,3.625 L 61.75,14.5625 L 63.125,14.5625 L 63.125,3.625 L 61.75,3.625 z M 4.4375,6.46875 L 4.4375,14.5625 L 5.78125,14.5625 L 5.78125,6.46875 L 4.4375,6.46875 z M 57.6875,6.46875 L 57.6875,14.5625 L 59.0625,14.5625 L 59.0625,6.46875 L 57.6875,6.46875 z M 100.3125,7.28125 C 100.3125,7.3937501 100.3125,14.5625 100.3125,14.5625 L 101.6875,14.5625 C 101.6875,14.5625 101.6875,7.39375 101.6875,7.28125 C 101.58625,7.2812501 100.4125,7.28125 100.3125,7.28125 z M 0,24.6875 C 0,24.8025 0,31.855 0,31.96875 C 0.10375,31.96875 1.11625,31.96875 1.21875,31.96875 C 1.21875,31.855 1.21875,28.71875 1.21875,28.71875 L 4.15625,28.71875 C 4.1562502,28.71875 4.15625,31.855 4.15625,31.96875 C 4.2600002,31.96875 5.27125,31.96875 5.375,31.96875 C 5.3749998,31.85375 5.375,24.805 5.375,24.6875 C 5.2712498,24.6875 4.26,24.6875 4.15625,24.6875 C 4.1562502,24.80125 4.15625,27.71875 4.15625,27.71875 L 1.21875,27.71875 C 1.21875,27.71875 1.21875,24.80125 1.21875,24.6875 C 1.11625,24.6875 0.10375,24.6875 0,24.6875 z M 6.9375,24.6875 C 6.9374998,24.804999 6.9375,31.8525 6.9375,31.96875 C 7.0537498,31.96875 12.19875,31.96875 12.3125,31.96875 C 12.3125,31.8525 12.3125,24.805 12.3125,24.6875 C 12.25375,24.687499 12.15625,24.6875 12.15625,24.6875 C 12.15625,24.687499 7.055,24.6875 6.9375,24.6875 z M 13.875,24.6875 C 13.875,24.805 13.875,31.85375 13.875,31.96875 C 13.99,31.96875 18.665,31.96875 18.78125,31.96875 C 18.78125,31.87 18.78125,31.06875 18.78125,30.96875 C 18.665,30.96875 15.09375,30.96875 15.09375,30.96875 L 15.09375,25.6875 L 18.78125,25.6875 L 18.78125,24.6875 C 18.78125,24.6875 13.99125,24.6875 13.875,24.6875 z M 20.125,24.6875 C 20.125,24.805 20.125,31.85375 20.125,31.96875 C 20.22875,31.96875 21.20875,31.96875 21.3125,31.96875 C 21.3125,31.855 21.3125,28.71875 21.3125,28.71875 L 24.28125,28.71875 C 24.28125,28.71875 24.28125,31.855 24.28125,31.96875 C 24.38375,31.96875 25.36625,31.96875 25.46875,31.96875 C 25.468751,31.85375 25.46875,24.805 25.46875,24.6875 C 25.410001,24.6875 24.38875,24.6875 24.28125,24.6875 C 24.28125,24.80125 24.28125,27.71875 24.28125,27.71875 L 21.3125,27.71875 C 21.3125,27.71875 21.3125,24.80125 21.3125,24.6875 C 21.20875,24.6875 20.22875,24.6875 20.125,24.6875 z M 27.0625,24.6875 C 27.0625,24.80125 27.0625,28.60375 27.0625,28.71875 C 27.17625,28.71875 30.75,28.71875 30.75,28.71875 L 30.75,30.96875 C 30.75,30.96875 27.17625,30.96875 27.0625,30.96875 C 27.0625,31.06875 27.0625,31.87 27.0625,31.96875 C 27.17625,31.96875 31.85375,31.96875 31.96875,31.96875 C 31.96875,31.855 31.96875,27.8325 31.96875,27.71875 C 31.85375,27.71875 28.25,27.71875 28.25,27.71875 L 28.25,25.6875 C 28.25,25.687499 31.85375,25.6875 31.96875,25.6875 C 31.96875,25.589999 31.96875,24.78875 31.96875,24.6875 C 31.90875,24.6875 27.17875,24.6875 27.0625,24.6875 z M 33.53125,24.6875 C 33.531249,24.805 33.53125,31.85375 33.53125,31.96875 C 33.647499,31.96875 38.32375,31.96875 38.4375,31.96875 C 38.437501,31.87 38.4375,31.06875 38.4375,30.96875 C 38.321251,30.96875 34.71875,30.96875 34.71875,30.96875 L 34.71875,25.6875 C 34.71875,25.687499 38.32125,25.6875 38.4375,25.6875 C 38.437501,25.589999 38.4375,24.78875 38.4375,24.6875 C 38.378751,24.6875 38.28125,24.6875 38.28125,24.6875 C 38.28125,24.6875 33.65,24.6875 33.53125,24.6875 z M 39.75,24.6875 C 39.75,24.805 39.75,31.85375 39.75,31.96875 C 39.855,31.96875 40.86625,31.96875 40.96875,31.96875 C 40.96875,31.855 40.96875,28.71875 40.96875,28.71875 L 43.9375,28.71875 C 43.937498,28.71875 43.9375,31.855 43.9375,31.96875 C 44.039998,31.96875 45.02125,31.96875 45.125,31.96875 C 45.125,31.855 45.125,24.805 45.125,24.6875 C 45.065,24.6875 45,24.6875 45,24.6875 C 45,24.6875 44.04375,24.6875 43.9375,24.6875 C 43.937498,24.80125 43.9375,27.71875 43.9375,27.71875 L 40.96875,27.71875 C 40.96875,27.718751 40.96875,24.80125 40.96875,24.6875 C 40.86625,24.6875 39.855,24.6875 39.75,24.6875 z M 46.59375,24.6875 C 46.59375,24.805 46.59375,31.855 46.59375,31.96875 C 46.70875,31.96875 51.85375,31.96875 51.96875,31.96875 C 51.968748,31.855 51.96875,24.805 51.96875,24.6875 C 51.864998,24.6875 50.855,24.6875 50.75,24.6875 C 50.75,24.805 50.75,30.96875 50.75,30.96875 L 47.78125,30.96875 C 47.781249,30.96875 47.78125,24.805 47.78125,24.6875 C 47.677499,24.6875 46.69625,24.6875 46.59375,24.6875 z M 53.53125,24.6875 C 53.53125,24.805 53.53125,31.855 53.53125,31.96875 C 53.645,31.96875 58.07375,31.96875 58.1875,31.96875 C 58.187499,31.87 58.1875,31.06875 58.1875,30.96875 C 58.073749,30.96875 54.71875,30.96875 54.71875,30.96875 C 54.71875,30.96875 54.71875,24.805 54.71875,24.6875 C 54.65875,24.6875 54.59375,24.6875 54.59375,24.6875 C 54.59375,24.6875 53.6375,24.6875 53.53125,24.6875 z M 59.1875,24.6875 C 59.1875,24.805 59.1875,31.855 59.1875,31.96875 C 59.30125,31.96875 63.7575,31.96875 63.875,31.96875 C 63.874998,31.87 63.875,31.06875 63.875,30.96875 C 63.757498,30.96875 60.40625,30.96875 60.40625,30.96875 L 60.40625,28.71875 C 60.406251,28.71875 63.2925,28.71875 63.40625,28.71875 C 63.406248,28.6175 63.40625,27.81625 63.40625,27.71875 C 63.292498,27.718751 60.40625,27.71875 60.40625,27.71875 L 60.40625,25.6875 C 60.406251,25.687499 63.50875,25.6875 63.625,25.6875 C 63.625,25.589999 63.625,24.78875 63.625,24.6875 C 63.5625,24.6875 63.5,24.6875 63.5,24.6875 C 63.500002,24.6875 59.3025,24.6875 59.1875,24.6875 z M 68.125,24.6875 C 68.125003,24.804999 68.125,31.85375 68.125,31.96875 C 68.237503,31.96875 72.6675,31.96875 72.78125,31.96875 C 72.781253,31.87 72.78125,31.25 72.78125,31.25 C 72.781253,31.250001 73.4,31.25 73.5,31.25 C 73.499997,31.136251 73.5,25.5225 73.5,25.40625 C 73.399997,25.406251 72.78125,25.40625 72.78125,25.40625 C 72.781253,25.406251 72.78125,24.78875 72.78125,24.6875 C 72.721253,24.687499 72.65625,24.6875 72.65625,24.6875 C 72.656251,24.687499 68.23875,24.6875 68.125,24.6875 z M 75.0625,24.6875 C 75.062497,24.805 75.0625,31.855 75.0625,31.96875 C 75.176247,31.96875 79.6,31.96875 79.71875,31.96875 C 79.718748,31.87 79.71875,31.06875 79.71875,30.96875 C 79.599998,30.96875 76.25,30.96875 76.25,30.96875 L 76.25,28.71875 C 76.249999,28.71875 79.1375,28.71875 79.25,28.71875 C 79.250001,28.6175 79.25,27.81625 79.25,27.71875 C 79.137501,27.718751 76.25,27.71875 76.25,27.71875 L 76.25,25.6875 C 76.249999,25.687499 79.385,25.6875 79.5,25.6875 C 79.500002,25.589999 79.5,24.78875 79.5,24.6875 C 79.440002,24.6875 79.34375,24.6875 79.34375,24.6875 C 79.343748,24.6875 75.18,24.6875 75.0625,24.6875 z M 80.9375,24.6875 C 80.9375,24.803749 80.9375,31.855 80.9375,31.96875 C 81.04,31.968749 82.05,31.96875 82.15625,31.96875 C 82.15625,31.854999 82.15625,28.71875 82.15625,28.71875 L 85.34375,28.71875 C 85.343748,28.718749 85.34375,31.855 85.34375,31.96875 C 85.448748,31.968749 86.4575,31.96875 86.5625,31.96875 C 86.562499,31.856249 86.5625,28.515 86.5625,28.40625 C 86.462499,28.40625 85.84375,28.40625 85.84375,28.40625 C 85.843747,28.40625 85.84375,24.8025 85.84375,24.6875 C 85.783747,24.687499 85.71875,24.6875 85.71875,24.6875 C 85.71875,24.687499 81.05375,24.6875 80.9375,24.6875 z M 90.90625,24.6875 C 90.906252,24.805 90.90625,31.855 90.90625,31.96875 C 91.012502,31.96875 92.02125,31.96875 92.125,31.96875 C 92.125,31.8525 92.125,25.6875 92.125,25.6875 L 94.375,25.6875 C 94.375,25.687499 94.375,31.8525 94.375,31.96875 C 94.4775,31.96875 95.4925,31.96875 95.59375,31.96875 C 95.593752,31.8525 95.59375,25.6875 95.59375,25.6875 L 97.84375,25.6875 C 97.843753,25.687499 97.84375,31.8525 97.84375,31.96875 C 97.948753,31.96875 98.95875,31.96875 99.0625,31.96875 C 99.062501,31.855 99.0625,24.805 99.0625,24.6875 C 99.002501,24.6875 98.90625,24.6875 98.90625,24.6875 C 98.906253,24.6875 91.0275,24.6875 90.90625,24.6875 z M 100.625,24.6875 C 100.625,24.805 100.625,31.855 100.625,31.96875 C 100.74,31.96875 105.19625,31.96875 105.3125,31.96875 C 105.3125,31.87 105.3125,31.06875 105.3125,30.96875 C 105.19625,30.96875 101.84375,30.96875 101.84375,30.96875 L 101.84375,28.71875 C 101.84375,28.71875 104.73,28.71875 104.84375,28.71875 C 104.84375,28.6175 104.84375,27.81625 104.84375,27.71875 C 104.73,27.718751 101.84375,27.71875 101.84375,27.71875 L 101.84375,25.6875 C 101.84375,25.687499 104.945,25.6875 105.0625,25.6875 C 105.0625,25.591249 105.0625,24.78875 105.0625,24.6875 C 105.00125,24.6875 104.9375,24.6875 104.9375,24.6875 C 104.9375,24.6875 100.74125,24.6875 100.625,24.6875 z M 106.875,24.6875 C 106.875,24.804999 106.875,31.85375 106.875,31.96875 C 106.9925,31.96875 111.4175,31.96875 111.53125,31.96875 C 111.53125,31.87 111.53125,31.25 111.53125,31.25 C 111.53125,31.250001 112.1475,31.25 112.25,31.25 C 112.25,31.136251 112.25,25.5225 112.25,25.40625 C 112.1475,25.406251 111.53125,25.40625 111.53125,25.40625 C 111.53125,25.406251 111.53125,24.78875 111.53125,24.6875 C 111.4725,24.687499 111.40625,24.6875 111.40625,24.6875 C 111.40625,24.687499 106.9925,24.6875 106.875,24.6875 z M 113.8125,24.6875 C 113.8125,24.805 113.8125,31.855 113.8125,31.96875 C 113.915,31.96875 114.8975,31.96875 115,31.96875 C 115,31.855 115,24.805 115,24.6875 C 114.94,24.6875 114.875,24.6875 114.875,24.6875 C 114.875,24.6875 113.91875,24.6875 113.8125,24.6875 z M 116.6875,24.6875 C 116.6875,24.805 116.6875,31.855 116.6875,31.96875 C 116.7975,31.96875 121.26375,31.96875 121.375,31.96875 C 121.375,31.87 121.375,31.06875 121.375,30.96875 C 121.26375,30.96875 117.90625,30.96875 117.90625,30.96875 L 117.90625,28.71875 C 117.90625,28.71875 120.79375,28.71875 120.90625,28.71875 C 120.90625,28.6175 120.90625,27.81625 120.90625,27.71875 C 120.79375,27.718751 117.90625,27.71875 117.90625,27.71875 L 117.90625,25.6875 C 117.90625,25.687499 121.03875,25.6875 121.15625,25.6875 C 121.15625,25.591249 121.15625,24.78875 121.15625,24.6875 C 121.09375,24.6875 121,24.6875 121,24.6875 C 121,24.6875 116.80125,24.6875 116.6875,24.6875 z M 122.6875,24.6875 C 122.6875,24.805 122.6875,31.855 122.6875,31.96875 C 122.79,31.96875 123.805,31.96875 123.90625,31.96875 C 123.90625,31.855 123.90625,25.6875 123.90625,25.6875 L 126.625,25.6875 C 126.625,25.687499 126.625,31.855 126.625,31.96875 C 126.7275,31.96875 127.73875,31.96875 127.84375,31.96875 C 127.84375,31.855 127.84375,24.805 127.84375,24.6875 C 127.7825,24.6875 127.6875,24.6875 127.6875,24.6875 C 127.6875,24.6875 122.8025,24.6875 122.6875,24.6875 z M 8.15625,25.6875 L 11.09375,25.6875 L 11.09375,30.96875 L 8.15625,30.96875 L 8.15625,30.875 L 8.15625,25.6875 z M 69.3125,25.6875 L 72.28125,25.6875 L 72.28125,30.96875 L 69.3125,30.96875 L 69.3125,30.875 L 69.3125,25.6875 z M 82.15625,25.6875 L 84.65625,25.6875 L 84.65625,27.71875 L 82.15625,27.71875 L 82.15625,27.625 L 82.15625,25.6875 z M 108.09375,25.6875 L 111.03125,25.6875 L 111.03125,30.96875 L 108.09375,30.96875 L 108.09375,30.875 L 108.09375,25.6875 z"
       transform="translate(311.07812,516.38156)"
       id="path3044"
       style="fill:#231f20;fill-opacity:1;fill-rule:nonzero;stroke:none" />
    <path
       d="M 72.40625,3.625 L 72.40625,5 L 74.90625,5 L 74.90625,13.1875 C 74.906252,13.1875 72.51375,13.1875 72.40625,13.1875 C 72.406248,13.29125 72.40625,14.5625 72.40625,14.5625 L 76.28125,14.5625 C 76.281247,14.5625 76.28125,3.73375 76.28125,3.625 C 76.172497,3.625 72.40625,3.625 72.40625,3.625 z M 77.9375,3.625 L 77.9375,14.5625 L 81.78125,14.5625 L 81.78125,13.1875 L 79.3125,13.1875 L 79.3125,5 C 79.312498,5.0000002 81.67375,5 81.78125,5 C 81.781246,4.9012502 81.78125,3.625 81.78125,3.625 L 77.9375,3.625 z"
       transform="translate(311.07812,516.38156)"
       id="path3066"
       style="fill:#a7a6a6;fill-opacity:1;fill-rule:nonzero;stroke:none" />
  </g>
</svg>
